<svg width="45" height="45" viewBox="0 0 45 45" fill="none" xmlns="http://www.w3.org/2000/svg">
<path d="M35.625 41.25H9.375C7.30393 41.25 5.625 39.5711 5.625 37.5V11.25C5.625 9.17893 7.30393 7.5 9.375 7.5H13.125V3.75H16.875V7.5H28.125V3.75H31.875V7.5H35.625C37.6961 7.5 39.375 9.17893 39.375 11.25V37.5C39.375 39.5711 37.6961 41.25 35.625 41.25ZM9.375 18.75V37.5H35.625V18.75H9.375ZM9.375 11.25V15H35.625V11.25H9.375ZM20.625 34.5262L13.6744 27.5756L16.3256 24.9244L20.625 29.2238L28.6744 21.1744L31.3256 23.8256L20.625 34.5244V34.5262Z" fill="#303030"/>
</svg>
