<svg width="17" height="18" viewBox="0 0 17 18" fill="none" xmlns="http://www.w3.org/2000/svg">
<rect x="1.66626" y="6.08984" width="13.8186" height="10.9094" fill="white"/>
<path d="M14.9997 2.77734H2.55516C2.06423 2.77734 1.66626 3.17532 1.66626 3.66624V16.1108C1.66626 16.6017 2.06423 16.9997 2.55516 16.9997H14.9997C15.4907 16.9997 15.8886 16.6017 15.8886 16.1108V3.66624C15.8886 3.17532 15.4907 2.77734 14.9997 2.77734Z" stroke="white" stroke-width="1.5" stroke-linecap="round" stroke-linejoin="round"/>
<path d="M11.9702 13.082H12.6975V13.8093H11.9702V13.082Z" stroke="#303030" stroke-width="1.5" stroke-linecap="round" stroke-linejoin="round"/>
<path d="M8.41476 13.082H9.14206V13.8093H8.41476V13.082Z" stroke="#303030" stroke-width="1.5" stroke-linecap="round" stroke-linejoin="round"/>
<path d="M4.85904 13.082H5.58634V13.8093H4.85904V13.082Z" stroke="#303030" stroke-width="1.5" stroke-linecap="round" stroke-linejoin="round"/>
<path d="M11.9702 9.52539H12.6975V10.2527H11.9702V9.52539Z" stroke="#303030" stroke-width="1.5" stroke-linecap="round" stroke-linejoin="round"/>
<path d="M8.41476 9.52539H9.14206V10.2527H8.41476V9.52539Z" stroke="#303030" stroke-width="1.5" stroke-linecap="round" stroke-linejoin="round"/>
<path d="M4.85904 9.52539H5.58634V10.2527H4.85904V9.52539Z" stroke="#303030" stroke-width="1.5" stroke-linecap="round" stroke-linejoin="round"/>
<path d="M1.66626 6.33398H15.8886" stroke="white" stroke-width="1.5" stroke-linecap="round" stroke-linejoin="round"/>
<path d="M12.333 1V2.7778" stroke="white" stroke-width="1.5" stroke-linecap="round" stroke-linejoin="round"/>
<path d="M5.22174 1V2.7778" stroke="white" stroke-width="1.5" stroke-linecap="round" stroke-linejoin="round"/>
</svg>
