<svg width="45" height="45" viewBox="0 0 45 45" fill="none" xmlns="http://www.w3.org/2000/svg">
<path d="M22.5 41.25C12.1447 41.25 3.75 32.8552 3.75 22.5C3.75 12.1447 12.1447 3.75 22.5 3.75C32.8552 3.75 41.25 12.1447 41.25 22.5C41.2386 32.8506 32.8506 41.2386 22.5 41.25ZM22.5 7.5C14.2157 7.5 7.5 14.2157 7.5 22.5C7.5 30.7843 14.2157 37.5 22.5 37.5C30.7843 37.5 37.5 30.7843 37.5 22.5C37.4906 14.2196 30.7804 7.5093 22.5 7.5ZM31.875 24.375H20.625V13.125H24.375V20.625H31.875V24.375Z" fill="#303030"/>
</svg>
