<svg width="41" height="42" viewBox="0 0 41 42" fill="none" xmlns="http://www.w3.org/2000/svg">
<circle cx="20.4562" cy="21.4543" r="20.4562" fill="#303030"/>
<path d="M27.1945 31.2412H13.0243C11.9063 31.2412 11 30.3349 11 29.2169V15.0467C11 13.9287 11.9063 13.0224 13.0243 13.0224H15.0486V10.998H17.0729V13.0224H23.1459V10.998H25.1702V13.0224H27.1945C28.3125 13.0224 29.2188 13.9287 29.2188 15.0467V29.2169C29.2188 30.3349 28.3125 31.2412 27.1945 31.2412ZM13.0243 19.0953V29.2169H27.1945V19.0953H13.0243ZM13.0243 15.0467V17.071H27.1945V15.0467H13.0243ZM17.8827 28.2047H16.0608V26.3828L20.3118 22.1419L22.1337 23.9638L17.8827 28.2047ZM22.7663 23.3281L20.9444 21.5062L22.3361 20.1206L24.158 21.9425L22.7714 23.3291L22.7663 23.3281Z" fill="white"/>
</svg>
