<svg width="45" height="45" viewBox="0 0 45 45" fill="none" xmlns="http://www.w3.org/2000/svg">
<path d="M16.875 5.625C11.6973 5.625 7.5 9.82234 7.5 15C7.5 20.1776 11.6973 24.375 16.875 24.375C22.0526 24.375 26.25 20.1776 26.25 15C26.25 9.82234 22.0526 5.625 16.875 5.625ZM11.25 15C11.25 11.8934 13.7684 9.375 16.875 9.375C19.9817 9.375 22.5 11.8934 22.5 15C22.5 18.1066 19.9817 20.625 16.875 20.625C13.7684 20.625 11.25 18.1066 11.25 15Z" fill="#303030"/>
<path d="M31.7032 15.4092C31.1758 15.1402 30.5921 15 30 15V11.25C31.1842 11.25 32.3516 11.5303 33.4067 12.0682C33.5229 12.1275 33.6373 12.1897 33.75 12.2547C34.6601 12.7802 35.451 13.4918 36.0699 14.3447C36.7655 15.3031 37.2242 16.4126 37.4085 17.5825C37.593 18.7523 37.4975 19.9491 37.1304 21.0751C36.7633 22.2008 36.1348 23.2238 35.2963 24.0601C34.4578 24.8965 33.4333 25.5222 32.3064 25.8865C31.3037 26.2105 30.2452 26.3193 29.2003 26.2071C29.0711 26.1933 28.9419 26.176 28.8131 26.1554C27.6446 25.9681 26.537 25.507 25.5808 24.8097L25.5789 24.8082L27.7894 21.7791C28.2677 22.1281 28.8219 22.3589 29.4065 22.4524C29.9912 22.5462 30.5897 22.5001 31.1531 22.318C31.7165 22.136 32.2288 21.823 32.648 21.4049C33.0673 20.9868 33.3815 20.4753 33.5651 19.9124C33.7487 19.3495 33.7963 18.751 33.7042 18.1662C33.612 17.5813 33.3827 17.0266 33.0349 16.5473C32.687 16.0681 32.2309 15.6781 31.7032 15.4092Z" fill="#303030"/>
<path d="M37.4964 39.375C37.4964 38.3906 37.3026 37.4158 36.9259 36.5062C36.549 35.5967 35.9968 34.7704 35.3008 34.0742C34.6046 33.3782 33.7783 32.826 32.8688 32.4491C31.9592 32.0724 30.9844 31.8786 30 31.8786V28.125C31.2789 28.125 32.547 28.3431 33.75 28.7683C33.9367 28.8343 34.1218 28.9054 34.3052 28.9813C35.6702 29.5468 36.9103 30.3754 37.9549 31.4201C38.9996 32.4647 39.8282 33.7048 40.3937 35.0698C40.4696 35.2532 40.5407 35.4383 40.6067 35.625C41.0319 36.828 41.25 38.0961 41.25 39.375H37.4964Z" fill="#303030"/>
<path d="M30 39.375H26.25C26.25 34.1974 22.0526 30 16.875 30C11.6973 30 7.5 34.1974 7.5 39.375H3.75C3.75 32.1263 9.62627 26.25 16.875 26.25C24.1238 26.25 30 32.1263 30 39.375Z" fill="#303030"/>
</svg>
