<svg width="41" height="42" viewBox="0 0 41 42" fill="none" xmlns="http://www.w3.org/2000/svg">
<circle cx="20.4562" cy="21.4543" r="20.4562" fill="white"/>
<path d="M17.4784 12.8257C14.8769 12.8257 12.7681 14.9346 12.7681 17.536C12.7681 20.1374 14.8769 22.2463 17.4784 22.2463C20.0798 22.2463 22.1887 20.1374 22.1887 17.536C22.1887 14.9346 20.0798 12.8257 17.4784 12.8257ZM14.6522 17.536C14.6522 15.9751 15.9175 14.7098 17.4784 14.7098C19.0393 14.7098 20.3046 15.9751 20.3046 17.536C20.3046 19.0968 19.0393 20.3622 17.4784 20.3622C15.9175 20.3622 14.6522 19.0968 14.6522 17.536Z" fill="#8F8F8F"/>
<path d="M24.9289 17.7411C24.6639 17.6059 24.3706 17.5355 24.0731 17.5355V15.6514C24.6681 15.6514 25.2546 15.7922 25.7847 16.0625C25.8431 16.0922 25.9006 16.1235 25.9572 16.1562C26.4145 16.4202 26.8119 16.7777 27.1228 17.2062C27.4723 17.6878 27.7028 18.2452 27.7954 18.833C27.8881 19.4208 27.8401 20.0221 27.6557 20.5878C27.4712 21.1534 27.1554 21.6674 26.7341 22.0876C26.3128 22.5078 25.7981 22.8222 25.2319 23.0052C24.7281 23.168 24.1963 23.2227 23.6713 23.1663C23.6064 23.1594 23.5415 23.1507 23.4768 23.1403C22.8897 23.0462 22.3332 22.8146 21.8527 22.4642L21.8518 22.4635L22.9624 20.9416C23.2027 21.1169 23.4812 21.2328 23.7749 21.2798C24.0687 21.327 24.3694 21.3038 24.6525 21.2123C24.9356 21.1208 25.1929 20.9636 25.4036 20.7535C25.6142 20.5434 25.7721 20.2864 25.8643 20.0036C25.9566 19.7208 25.9805 19.4201 25.9342 19.1263C25.8879 18.8324 25.7727 18.5537 25.5979 18.3129C25.4232 18.0722 25.194 17.8762 24.9289 17.7411Z" fill="#8F8F8F"/>
<path d="M27.8395 29.7818C27.8395 29.2872 27.742 28.7974 27.5528 28.3404C27.3634 27.8834 27.086 27.4683 26.7363 27.1185C26.3865 26.7688 25.9713 26.4913 25.5144 26.302C25.0574 26.1127 24.5676 26.0153 24.073 26.0153V24.1294C24.7156 24.1294 25.3527 24.239 25.9571 24.4526C26.051 24.4858 26.1439 24.5215 26.2361 24.5596C26.9219 24.8438 27.545 25.2601 28.0698 25.785C28.5947 26.3098 29.011 26.9329 29.2951 27.6187C29.3333 27.7108 29.369 27.8038 29.4021 27.8976C29.6158 28.5021 29.7254 29.1392 29.7254 29.7818H27.8395Z" fill="#8F8F8F"/>
<path d="M24.0729 29.7814H22.1888C22.1888 27.18 20.0799 25.0711 17.4785 25.0711C14.877 25.0711 12.7682 27.18 12.7682 29.7814H10.884C10.884 26.1394 13.8365 23.187 17.4785 23.187C21.1205 23.187 24.0729 26.1394 24.0729 29.7814Z" fill="#8F8F8F"/>
</svg>
