<svg width="86" height="56" viewBox="0 0 86 56" fill="none" xmlns="http://www.w3.org/2000/svg">
<rect width="85.6" height="56" fill="white"/>
<path d="M33.6585 39.1367V40.0566H29.0413V39.1367H33.6585ZM29.2171 35.4688V44H28.0862V35.4688H29.2171ZM34.6429 35.4688V44H33.5179V35.4688H34.6429ZM36.2015 40.9004V40.7656C36.2015 40.3086 36.2679 39.8848 36.4007 39.4941C36.5335 39.0996 36.7249 38.7578 36.9749 38.4688C37.2249 38.1758 37.5276 37.9492 37.8831 37.7891C38.2386 37.625 38.637 37.543 39.0784 37.543C39.5237 37.543 39.9241 37.625 40.2796 37.7891C40.639 37.9492 40.9437 38.1758 41.1937 38.4688C41.4476 38.7578 41.6409 39.0996 41.7737 39.4941C41.9066 39.8848 41.973 40.3086 41.973 40.7656V40.9004C41.973 41.3574 41.9066 41.7812 41.7737 42.1719C41.6409 42.5625 41.4476 42.9043 41.1937 43.1973C40.9437 43.4863 40.6409 43.7129 40.2855 43.877C39.9339 44.0371 39.5355 44.1172 39.0901 44.1172C38.6448 44.1172 38.2444 44.0371 37.889 43.877C37.5335 43.7129 37.2288 43.4863 36.9749 43.1973C36.7249 42.9043 36.5335 42.5625 36.4007 42.1719C36.2679 41.7812 36.2015 41.3574 36.2015 40.9004ZM37.2855 40.7656V40.9004C37.2855 41.2168 37.3226 41.5156 37.3968 41.7969C37.471 42.0742 37.5823 42.3203 37.7308 42.5352C37.8831 42.75 38.0726 42.9199 38.2991 43.0449C38.5257 43.166 38.7894 43.2266 39.0901 43.2266C39.387 43.2266 39.6468 43.166 39.8694 43.0449C40.096 42.9199 40.2835 42.75 40.4319 42.5352C40.5804 42.3203 40.6917 42.0742 40.7659 41.7969C40.8441 41.5156 40.8831 41.2168 40.8831 40.9004V40.7656C40.8831 40.4531 40.8441 40.1582 40.7659 39.8809C40.6917 39.5996 40.5784 39.3516 40.4261 39.1367C40.2776 38.918 40.0901 38.7461 39.8636 38.6211C39.6409 38.4961 39.3792 38.4336 39.0784 38.4336C38.7816 38.4336 38.5198 38.4961 38.2933 38.6211C38.0706 38.7461 37.8831 38.918 37.7308 39.1367C37.5823 39.3516 37.471 39.5996 37.3968 39.8809C37.3226 40.1582 37.2855 40.4531 37.2855 40.7656ZM44.4105 38.9199V44H43.3206V37.6602H44.3519L44.4105 38.9199ZM44.1878 40.5898L43.6839 40.5723C43.6878 40.1387 43.7444 39.7383 43.8538 39.3711C43.9632 39 44.1253 38.6777 44.3401 38.4043C44.555 38.1309 44.8226 37.9199 45.1429 37.7715C45.4632 37.6191 45.8343 37.543 46.2562 37.543C46.553 37.543 46.8265 37.5859 47.0765 37.6719C47.3265 37.7539 47.5433 37.8848 47.7269 38.0645C47.9105 38.2441 48.053 38.4746 48.1546 38.7559C48.2562 39.0371 48.3069 39.377 48.3069 39.7754V44H47.223V39.8281C47.223 39.4961 47.1663 39.2305 47.053 39.0312C46.9437 38.832 46.7874 38.6875 46.5843 38.5977C46.3812 38.5039 46.1429 38.457 45.8694 38.457C45.5491 38.457 45.2816 38.5137 45.0667 38.627C44.8519 38.7402 44.68 38.8965 44.5511 39.0957C44.4222 39.2949 44.3284 39.5234 44.2698 39.7812C44.2151 40.0352 44.1878 40.3047 44.1878 40.5898ZM48.2952 39.9922L47.5687 40.2148C47.5726 39.8672 47.6292 39.5332 47.7386 39.2129C47.8519 38.8926 48.014 38.6074 48.2249 38.3574C48.4398 38.1074 48.7034 37.9102 49.0159 37.7656C49.3284 37.6172 49.6859 37.543 50.0882 37.543C50.428 37.543 50.7288 37.5879 50.9905 37.6777C51.2562 37.7676 51.4788 37.9062 51.6585 38.0938C51.8421 38.2773 51.9808 38.5137 52.0745 38.8027C52.1683 39.0918 52.2151 39.4355 52.2151 39.834V44H51.1253V39.8223C51.1253 39.4668 51.0687 39.1914 50.9554 38.9961C50.846 38.7969 50.6898 38.6582 50.4866 38.5801C50.2874 38.498 50.0491 38.457 49.7718 38.457C49.5335 38.457 49.3226 38.498 49.139 38.5801C48.9554 38.6621 48.8011 38.7754 48.6761 38.9199C48.5511 39.0605 48.4554 39.2227 48.389 39.4062C48.3265 39.5898 48.2952 39.7852 48.2952 39.9922ZM56.4866 44.1172C56.0452 44.1172 55.6448 44.043 55.2855 43.8945C54.93 43.7422 54.6234 43.5293 54.3655 43.2559C54.1116 42.9824 53.9163 42.6582 53.7796 42.2832C53.6429 41.9082 53.5745 41.498 53.5745 41.0527V40.8066C53.5745 40.291 53.6507 39.832 53.803 39.4297C53.9554 39.0234 54.1624 38.6797 54.4241 38.3984C54.6859 38.1172 54.9827 37.9043 55.3148 37.7598C55.6468 37.6152 55.9905 37.543 56.346 37.543C56.7991 37.543 57.1898 37.6211 57.5179 37.7773C57.8499 37.9336 58.1214 38.1523 58.3323 38.4336C58.5433 38.7109 58.6995 39.0391 58.8011 39.418C58.9026 39.793 58.9534 40.2031 58.9534 40.6484V41.1348H54.2191V40.25H57.8694V40.168C57.8538 39.8867 57.7952 39.6133 57.6937 39.3477C57.596 39.082 57.4398 38.8633 57.2249 38.6914C57.0101 38.5195 56.7171 38.4336 56.346 38.4336C56.0999 38.4336 55.8734 38.4863 55.6663 38.5918C55.4593 38.6934 55.2816 38.8457 55.1331 39.0488C54.9847 39.252 54.8694 39.5 54.7874 39.793C54.7054 40.0859 54.6644 40.4238 54.6644 40.8066V41.0527C54.6644 41.3535 54.7054 41.6367 54.7874 41.9023C54.8734 42.1641 54.9964 42.3945 55.1566 42.5938C55.3206 42.793 55.5179 42.9492 55.7484 43.0625C55.9827 43.1758 56.2484 43.2324 56.5452 43.2324C56.928 43.2324 57.2523 43.1543 57.5179 42.998C57.7835 42.8418 58.0159 42.6328 58.2151 42.3711L58.8714 42.8926C58.7347 43.0996 58.5609 43.2969 58.3499 43.4844C58.139 43.6719 57.8792 43.8242 57.5706 43.9414C57.2659 44.0586 56.9046 44.1172 56.4866 44.1172Z" fill="#747474"/>
<path d="M43.4116 8.90461L53.0366 17.3242C53.1723 17.4428 53.25 17.6141 53.25 17.7942V29.542C53.25 29.8868 52.9704 30.1667 52.625 30.1667H47.125C46.7796 30.1667 46.5 29.8868 46.5 29.542V24.0436C46.5 22.87 45.5484 21.9189 44.375 21.9189H41.625C40.4516 21.9189 39.5 22.87 39.5 24.0436V29.542C39.5 29.8868 39.2204 30.1667 38.875 30.1667H33.375C33.0296 30.1667 32.75 29.8868 32.75 29.542V17.7942C32.75 17.6141 32.8277 17.4428 32.9634 17.3242L42.5884 8.90461C42.824 8.69846 43.176 8.69846 43.4116 8.90461Z" stroke="#747474" stroke-width="1.5" stroke-linecap="round" stroke-linejoin="round"/>
</svg>
