<svg width="87" height="56" viewBox="0 0 87 56" fill="none" xmlns="http://www.w3.org/2000/svg">
<rect width="85.6" height="56" transform="translate(0.799988)" fill="white"/>
<path d="M29.9763 35.4688H31.072L33.8669 42.4238L36.656 35.4688H37.7576L34.2888 44H33.4333L29.9763 35.4688ZM29.6189 35.4688H30.5857L30.7439 40.6719V44H29.6189V35.4688ZM37.1423 35.4688H38.1091V44H36.9841V40.6719L37.1423 35.4688ZM42.5623 44.1172C42.1208 44.1172 41.7205 44.043 41.3611 43.8945C41.0056 43.7422 40.699 43.5293 40.4412 43.2559C40.1873 42.9824 39.9919 42.6582 39.8552 42.2832C39.7185 41.9082 39.6501 41.498 39.6501 41.0527V40.8066C39.6501 40.291 39.7263 39.832 39.8787 39.4297C40.031 39.0234 40.238 38.6797 40.4998 38.3984C40.7615 38.1172 41.0583 37.9043 41.3904 37.7598C41.7224 37.6152 42.0662 37.543 42.4216 37.543C42.8748 37.543 43.2654 37.6211 43.5935 37.7773C43.9255 37.9336 44.197 38.1523 44.408 38.4336C44.6189 38.7109 44.7751 39.0391 44.8767 39.418C44.9783 39.793 45.0291 40.2031 45.0291 40.6484V41.1348H40.2947V40.25H43.9451V40.168C43.9294 39.8867 43.8708 39.6133 43.7693 39.3477C43.6716 39.082 43.5154 38.8633 43.3005 38.6914C43.0857 38.5195 42.7927 38.4336 42.4216 38.4336C42.1755 38.4336 41.949 38.4863 41.7419 38.5918C41.5349 38.6934 41.3572 38.8457 41.2087 39.0488C41.0603 39.252 40.9451 39.5 40.863 39.793C40.781 40.0859 40.74 40.4238 40.74 40.8066V41.0527C40.74 41.3535 40.781 41.6367 40.863 41.9023C40.949 42.1641 41.072 42.3945 41.2322 42.5938C41.3962 42.793 41.5935 42.9492 41.824 43.0625C42.0583 43.1758 42.324 43.2324 42.6208 43.2324C43.0037 43.2324 43.3279 43.1543 43.5935 42.998C43.8591 42.8418 44.0916 42.6328 44.2908 42.3711L44.947 42.8926C44.8103 43.0996 44.6365 43.2969 44.4255 43.4844C44.2146 43.6719 43.9548 43.8242 43.6462 43.9414C43.3416 44.0586 42.9802 44.1172 42.5623 44.1172ZM47.3787 39.0137V44H46.2947V37.6602H47.3201L47.3787 39.0137ZM47.1208 40.5898L46.6697 40.5723C46.6736 40.1387 46.738 39.7383 46.863 39.3711C46.988 39 47.1638 38.6777 47.3904 38.4043C47.6169 38.1309 47.8865 37.9199 48.199 37.7715C48.5154 37.6191 48.865 37.543 49.2478 37.543C49.5603 37.543 49.8416 37.5859 50.0916 37.6719C50.3416 37.7539 50.5544 37.8867 50.7302 38.0703C50.9099 38.2539 51.0466 38.4922 51.1404 38.7852C51.2341 39.0742 51.281 39.4277 51.281 39.8457V44H50.1912V39.834C50.1912 39.502 50.1423 39.2363 50.0447 39.0371C49.947 38.834 49.8044 38.6875 49.6169 38.5977C49.4294 38.5039 49.199 38.457 48.9255 38.457C48.656 38.457 48.4099 38.5137 48.1873 38.627C47.9685 38.7402 47.7791 38.8965 47.6189 39.0957C47.4626 39.2949 47.3396 39.5234 47.2498 39.7812C47.1638 40.0352 47.1208 40.3047 47.1208 40.5898ZM56.8064 42.5352V37.6602H57.8962V44H56.8591L56.8064 42.5352ZM57.0115 41.1992L57.4626 41.1875C57.4626 41.6094 57.4177 42 57.3279 42.3594C57.2419 42.7148 57.1013 43.0234 56.906 43.2852C56.7107 43.5469 56.4548 43.752 56.1384 43.9004C55.822 44.0449 55.4373 44.1172 54.9841 44.1172C54.6755 44.1172 54.3923 44.0723 54.1345 43.9824C53.8806 43.8926 53.6619 43.7539 53.4783 43.5664C53.2947 43.3789 53.1521 43.1348 53.0505 42.834C52.9529 42.5332 52.9041 42.1719 52.9041 41.75V37.6602H53.988V41.7617C53.988 42.0469 54.0193 42.2832 54.0818 42.4707C54.1482 42.6543 54.2361 42.8008 54.3455 42.9102C54.4587 43.0156 54.5837 43.0898 54.7205 43.1328C54.8611 43.1758 55.0056 43.1973 55.1541 43.1973C55.615 43.1973 55.9802 43.1094 56.2498 42.9336C56.5193 42.7539 56.7126 42.5137 56.8298 42.2129C56.9509 41.9082 57.0115 41.5703 57.0115 41.1992Z" fill="#747474"/>
<path d="M52.1125 8H35.4875C34.8316 8 34.3 8.61561 34.3 9.375V28.625C34.3 29.3844 34.8316 30 35.4875 30H52.1125C52.7683 30 53.3 29.3844 53.3 28.625V9.375C53.3 8.61561 52.7683 8 52.1125 8Z" stroke="#747474" stroke-width="1.5" stroke-linecap="round" stroke-linejoin="round"/>
<path d="M42.3 17.625H47.8" stroke="#747474" stroke-width="1.5" stroke-linecap="round" stroke-linejoin="round"/>
<path d="M42.3 13.5H47.8" stroke="#747474" stroke-width="1.5" stroke-linecap="round" stroke-linejoin="round"/>
<path d="M36.8 30L36.8 8" stroke="#747474" stroke-width="1.5" stroke-linecap="round" stroke-linejoin="round"/>
</svg>
