<svg width="87" height="56" viewBox="0 0 87 56" fill="none" xmlns="http://www.w3.org/2000/svg">
<rect width="85.6" height="56" transform="translate(0.600006)" fill="white"/>
<path d="M33.5235 40.6543H31.2442V39.7344H33.5235C33.9649 39.7344 34.3224 39.6641 34.5958 39.5234C34.8692 39.3828 35.0685 39.1875 35.1935 38.9375C35.3224 38.6875 35.3868 38.4023 35.3868 38.082C35.3868 37.7891 35.3224 37.5137 35.1935 37.2559C35.0685 36.998 34.8692 36.791 34.5958 36.6348C34.3224 36.4746 33.9649 36.3945 33.5235 36.3945H31.5079V44H30.377V35.4688H33.5235C34.1681 35.4688 34.713 35.5801 35.1583 35.8027C35.6036 36.0254 35.9415 36.334 36.172 36.7285C36.4024 37.1191 36.5177 37.5664 36.5177 38.0703C36.5177 38.6172 36.4024 39.084 36.172 39.4707C35.9415 39.8574 35.6036 40.1523 35.1583 40.3555C34.713 40.5547 34.1681 40.6543 33.5235 40.6543ZM37.4142 40.9004V40.7656C37.4142 40.3086 37.4806 39.8848 37.6134 39.4941C37.7462 39.0996 37.9376 38.7578 38.1876 38.4688C38.4376 38.1758 38.7403 37.9492 39.0958 37.7891C39.4513 37.625 39.8497 37.543 40.2911 37.543C40.7364 37.543 41.1368 37.625 41.4923 37.7891C41.8517 37.9492 42.1563 38.1758 42.4063 38.4688C42.6602 38.7578 42.8536 39.0996 42.9864 39.4941C43.1192 39.8848 43.1856 40.3086 43.1856 40.7656V40.9004C43.1856 41.3574 43.1192 41.7812 42.9864 42.1719C42.8536 42.5625 42.6602 42.9043 42.4063 43.1973C42.1563 43.4863 41.8536 43.7129 41.4981 43.877C41.1466 44.0371 40.7481 44.1172 40.3028 44.1172C39.8575 44.1172 39.4571 44.0371 39.1017 43.877C38.7462 43.7129 38.4415 43.4863 38.1876 43.1973C37.9376 42.9043 37.7462 42.5625 37.6134 42.1719C37.4806 41.7812 37.4142 41.3574 37.4142 40.9004ZM38.4981 40.7656V40.9004C38.4981 41.2168 38.5352 41.5156 38.6095 41.7969C38.6837 42.0742 38.795 42.3203 38.9435 42.5352C39.0958 42.75 39.2852 42.9199 39.5118 43.0449C39.7384 43.166 40.002 43.2266 40.3028 43.2266C40.5997 43.2266 40.8595 43.166 41.0821 43.0449C41.3087 42.9199 41.4962 42.75 41.6446 42.5352C41.7931 42.3203 41.9044 42.0742 41.9786 41.7969C42.0567 41.5156 42.0958 41.2168 42.0958 40.9004V40.7656C42.0958 40.4531 42.0567 40.1582 41.9786 39.8809C41.9044 39.5996 41.7911 39.3516 41.6388 39.1367C41.4903 38.918 41.3028 38.7461 41.0763 38.6211C40.8536 38.4961 40.5919 38.4336 40.2911 38.4336C39.9942 38.4336 39.7325 38.4961 39.506 38.6211C39.2833 38.7461 39.0958 38.918 38.9435 39.1367C38.795 39.3516 38.6837 39.5996 38.6095 39.8809C38.5352 40.1582 38.4981 40.4531 38.4981 40.7656ZM45.7227 37.6602V44H44.6329V37.6602H45.7227ZM44.5509 35.9785C44.5509 35.8027 44.6036 35.6543 44.7091 35.5332C44.8185 35.4121 44.9786 35.3516 45.1895 35.3516C45.3966 35.3516 45.5548 35.4121 45.6642 35.5332C45.7774 35.6543 45.8341 35.8027 45.8341 35.9785C45.8341 36.1465 45.7774 36.291 45.6642 36.4121C45.5548 36.5293 45.3966 36.5879 45.1895 36.5879C44.9786 36.5879 44.8185 36.5293 44.7091 36.4121C44.6036 36.291 44.5509 36.1465 44.5509 35.9785ZM48.547 39.0137V44H47.463V37.6602H48.4884L48.547 39.0137ZM48.2892 40.5898L47.838 40.5723C47.8419 40.1387 47.9063 39.7383 48.0313 39.3711C48.1563 39 48.3321 38.6777 48.5587 38.4043C48.7852 38.1309 49.0548 37.9199 49.3673 37.7715C49.6837 37.6191 50.0333 37.543 50.4161 37.543C50.7286 37.543 51.0099 37.5859 51.2599 37.6719C51.5099 37.7539 51.7227 37.8867 51.8985 38.0703C52.0782 38.2539 52.2149 38.4922 52.3087 38.7852C52.4024 39.0742 52.4493 39.4277 52.4493 39.8457V44H51.3595V39.834C51.3595 39.502 51.3106 39.2363 51.213 39.0371C51.1153 38.834 50.9727 38.6875 50.7852 38.5977C50.5977 38.5039 50.3673 38.457 50.0938 38.457C49.8243 38.457 49.5782 38.5137 49.3556 38.627C49.1368 38.7402 48.9474 38.8965 48.7872 39.0957C48.631 39.2949 48.5079 39.5234 48.4181 39.7812C48.3321 40.0352 48.2892 40.3047 48.2892 40.5898ZM56.7501 37.6602V38.4922H53.3224V37.6602H56.7501ZM54.4825 36.1191H55.5665V42.4297C55.5665 42.6445 55.5997 42.8066 55.6661 42.916C55.7325 43.0254 55.8185 43.0977 55.9239 43.1328C56.0294 43.168 56.1427 43.1855 56.2638 43.1855C56.3536 43.1855 56.4474 43.1777 56.545 43.1621C56.6466 43.1426 56.7227 43.127 56.7735 43.1152L56.7794 44C56.6935 44.0273 56.5802 44.0527 56.4395 44.0762C56.3028 44.1035 56.1368 44.1172 55.9415 44.1172C55.6759 44.1172 55.4317 44.0645 55.2091 43.959C54.9864 43.8535 54.8087 43.6777 54.6759 43.4316C54.547 43.1816 54.4825 42.8457 54.4825 42.4238V36.1191Z" fill="#747474"/>
<path d="M54.2667 11H32.9333C32.197 11 31.6 11.5117 31.6 12.1429V25.8571C31.6 26.4883 32.197 27 32.9333 27H54.2667C55.0031 27 55.6 26.4883 55.6 25.8571V12.1429C55.6 11.5117 55.0031 11 54.2667 11Z" stroke="#747474" stroke-width="1.5" stroke-linecap="round" stroke-linejoin="round"/>
<path d="M36.9333 22.4277H42.2667" stroke="#747474" stroke-width="1.5" stroke-linecap="round" stroke-linejoin="round"/>
<path d="M31.6 17.8574H55.6" stroke="#747474" stroke-width="1.5" stroke-linecap="round" stroke-linejoin="round"/>
<path d="M31.6 15.5723H55.6" stroke="#747474" stroke-width="1.5" stroke-linecap="round" stroke-linejoin="round"/>
</svg>
