<svg width="86" height="56" viewBox="0 0 86 56" fill="none" xmlns="http://www.w3.org/2000/svg">
<rect width="85.6" height="56" transform="translate(0.400024)" fill="white"/>
<path d="M30.4451 40.6543H28.1658V39.7344H30.4451C30.8865 39.7344 31.244 39.6641 31.5174 39.5234C31.7908 39.3828 31.9901 39.1875 32.1151 38.9375C32.244 38.6875 32.3084 38.4023 32.3084 38.082C32.3084 37.7891 32.244 37.5137 32.1151 37.2559C31.9901 36.998 31.7908 36.791 31.5174 36.6348C31.244 36.4746 30.8865 36.3945 30.4451 36.3945H28.4295V44H27.2986V35.4688H30.4451C31.0897 35.4688 31.6346 35.5801 32.0799 35.8027C32.5252 36.0254 32.8631 36.334 33.0936 36.7285C33.324 37.1191 33.4393 37.5664 33.4393 38.0703C33.4393 38.6172 33.324 39.084 33.0936 39.4707C32.8631 39.8574 32.5252 40.1523 32.0799 40.3555C31.6346 40.5547 31.0897 40.6543 30.4451 40.6543ZM35.7889 38.6562V44H34.7049V37.6602H35.7596L35.7889 38.6562ZM37.7693 37.625L37.7635 38.6328C37.6736 38.6133 37.5877 38.6016 37.5057 38.5977C37.4276 38.5898 37.3377 38.5859 37.2361 38.5859C36.9861 38.5859 36.7654 38.625 36.574 38.7031C36.3826 38.7812 36.2205 38.8906 36.0877 39.0312C35.9549 39.1719 35.8494 39.3398 35.7713 39.5352C35.6971 39.7266 35.6483 39.9375 35.6248 40.168L35.3201 40.3438C35.3201 39.9609 35.3572 39.6016 35.4315 39.2656C35.5096 38.9297 35.6287 38.6328 35.7889 38.375C35.949 38.1133 36.1522 37.9102 36.3983 37.7656C36.6483 37.6172 36.9451 37.543 37.2889 37.543C37.367 37.543 37.4568 37.5527 37.5584 37.5723C37.66 37.5879 37.7303 37.6055 37.7693 37.625ZM38.367 40.9004V40.7656C38.367 40.3086 38.4334 39.8848 38.5662 39.4941C38.699 39.0996 38.8904 38.7578 39.1404 38.4688C39.3904 38.1758 39.6932 37.9492 40.0486 37.7891C40.4041 37.625 40.8026 37.543 41.244 37.543C41.6893 37.543 42.0897 37.625 42.4451 37.7891C42.8045 37.9492 43.1092 38.1758 43.3592 38.4688C43.6131 38.7578 43.8065 39.0996 43.9393 39.4941C44.0721 39.8848 44.1385 40.3086 44.1385 40.7656V40.9004C44.1385 41.3574 44.0721 41.7812 43.9393 42.1719C43.8065 42.5625 43.6131 42.9043 43.3592 43.1973C43.1092 43.4863 42.8065 43.7129 42.451 43.877C42.0994 44.0371 41.701 44.1172 41.2557 44.1172C40.8104 44.1172 40.41 44.0371 40.0545 43.877C39.699 43.7129 39.3943 43.4863 39.1404 43.1973C38.8904 42.9043 38.699 42.5625 38.5662 42.1719C38.4334 41.7812 38.367 41.3574 38.367 40.9004ZM39.451 40.7656V40.9004C39.451 41.2168 39.4881 41.5156 39.5623 41.7969C39.6365 42.0742 39.7479 42.3203 39.8963 42.5352C40.0486 42.75 40.2381 42.9199 40.4647 43.0449C40.6912 43.166 40.9549 43.2266 41.2557 43.2266C41.5526 43.2266 41.8123 43.166 42.035 43.0449C42.2615 42.9199 42.449 42.75 42.5975 42.5352C42.7459 42.3203 42.8572 42.0742 42.9315 41.7969C43.0096 41.5156 43.0486 41.2168 43.0486 40.9004V40.7656C43.0486 40.4531 43.0096 40.1582 42.9315 39.8809C42.8572 39.5996 42.744 39.3516 42.5916 39.1367C42.4432 38.918 42.2557 38.7461 42.0291 38.6211C41.8065 38.4961 41.5447 38.4336 41.244 38.4336C40.9471 38.4336 40.6854 38.4961 40.4588 38.6211C40.2361 38.7461 40.0486 38.918 39.8963 39.1367C39.7479 39.3516 39.6365 39.5996 39.5623 39.8809C39.4881 40.1582 39.451 40.4531 39.451 40.7656ZM47.1151 44H46.0311V36.9922C46.0311 36.5352 46.1131 36.1504 46.2772 35.8379C46.4451 35.5215 46.6854 35.2832 46.9979 35.123C47.3104 34.959 47.6815 34.877 48.1111 34.877C48.2361 34.877 48.3611 34.8848 48.4861 34.9004C48.6151 34.916 48.7401 34.9395 48.8611 34.9707L48.8026 35.8555C48.7205 35.8359 48.6268 35.8223 48.5213 35.8145C48.4197 35.8066 48.3182 35.8027 48.2166 35.8027C47.9861 35.8027 47.7869 35.8496 47.619 35.9434C47.4549 36.0332 47.3299 36.166 47.244 36.3418C47.158 36.5176 47.1151 36.7344 47.1151 36.9922V44ZM48.4627 37.6602V38.4922H45.0291V37.6602H48.4627ZM50.8475 37.6602V44H49.7576V37.6602H50.8475ZM49.6756 35.9785C49.6756 35.8027 49.7283 35.6543 49.8338 35.5332C49.9432 35.4121 50.1033 35.3516 50.3143 35.3516C50.5213 35.3516 50.6795 35.4121 50.7889 35.5332C50.9022 35.6543 50.9588 35.8027 50.9588 35.9785C50.9588 36.1465 50.9022 36.291 50.7889 36.4121C50.6795 36.5293 50.5213 36.5879 50.3143 36.5879C50.1033 36.5879 49.9432 36.5293 49.8338 36.4121C49.7283 36.291 49.6756 36.1465 49.6756 35.9785ZM53.7654 35V44H52.6756V35H53.7654ZM58.1365 44.1172C57.6951 44.1172 57.2947 44.043 56.9354 43.8945C56.5799 43.7422 56.2733 43.5293 56.0154 43.2559C55.7615 42.9824 55.5662 42.6582 55.4295 42.2832C55.2928 41.9082 55.2244 41.498 55.2244 41.0527V40.8066C55.2244 40.291 55.3006 39.832 55.4529 39.4297C55.6053 39.0234 55.8123 38.6797 56.074 38.3984C56.3358 38.1172 56.6326 37.9043 56.9647 37.7598C57.2967 37.6152 57.6404 37.543 57.9959 37.543C58.449 37.543 58.8397 37.6211 59.1678 37.7773C59.4998 37.9336 59.7713 38.1523 59.9822 38.4336C60.1932 38.7109 60.3494 39.0391 60.451 39.418C60.5526 39.793 60.6033 40.2031 60.6033 40.6484V41.1348H55.869V40.25H59.5193V40.168C59.5037 39.8867 59.4451 39.6133 59.3436 39.3477C59.2459 39.082 59.0897 38.8633 58.8748 38.6914C58.66 38.5195 58.367 38.4336 57.9959 38.4336C57.7498 38.4336 57.5233 38.4863 57.3162 38.5918C57.1092 38.6934 56.9315 38.8457 56.783 39.0488C56.6346 39.252 56.5193 39.5 56.4373 39.793C56.3553 40.0859 56.3143 40.4238 56.3143 40.8066V41.0527C56.3143 41.3535 56.3553 41.6367 56.4373 41.9023C56.5233 42.1641 56.6463 42.3945 56.8065 42.5938C56.9705 42.793 57.1678 42.9492 57.3983 43.0625C57.6326 43.1758 57.8983 43.2324 58.1951 43.2324C58.5779 43.2324 58.9022 43.1543 59.1678 42.998C59.4334 42.8418 59.6658 42.6328 59.8651 42.3711L60.5213 42.8926C60.3846 43.0996 60.2108 43.2969 59.9998 43.4844C59.7889 43.6719 59.5291 43.8242 59.2205 43.9414C58.9158 44.0586 58.5545 44.1172 58.1365 44.1172Z" fill="#747474"/>
<path d="M43.4 29.5C49.199 29.5 53.9 24.799 53.9 19C53.9 13.201 49.199 8.5 43.4 8.5C37.601 8.5 32.9 13.201 32.9 19C32.9 24.799 37.601 29.5 43.4 29.5Z" stroke="#747474" stroke-width="1.5" stroke-linecap="round" stroke-linejoin="round"/>
<path d="M49.4859 27.555C47.9905 25.8849 45.8179 24.834 43.3998 24.834C40.9817 24.834 38.8091 25.8849 37.3137 27.555" stroke="#747474" stroke-width="1.5" stroke-linecap="round" stroke-linejoin="round"/>
<path d="M43.4 21.334C45.333 21.334 46.9 19.767 46.9 17.834C46.9 15.901 45.333 14.334 43.4 14.334C41.467 14.334 39.9 15.901 39.9 17.834C39.9 19.767 41.467 21.334 43.4 21.334Z" stroke="#747474" stroke-width="1.5" stroke-linecap="round" stroke-linejoin="round"/>
</svg>
