<svg width="86" height="56" viewBox="0 0 86 56" fill="none" xmlns="http://www.w3.org/2000/svg">
<rect width="85.6" height="56" transform="translate(0.400024)" fill="white"/>
<path d="M29.6451 40.6543H27.3658V39.7344H29.6451C30.0865 39.7344 30.444 39.6641 30.7174 39.5234C30.9908 39.3828 31.1901 39.1875 31.3151 38.9375C31.444 38.6875 31.5084 38.4023 31.5084 38.082C31.5084 37.7891 31.444 37.5137 31.3151 37.2559C31.1901 36.998 30.9908 36.791 30.7174 36.6348C30.444 36.4746 30.0865 36.3945 29.6451 36.3945H27.6295V44H26.4987V35.4688H29.6451C30.2897 35.4688 30.8346 35.5801 31.2799 35.8027C31.7252 36.0254 32.0631 36.334 32.2936 36.7285C32.524 37.1191 32.6393 37.5664 32.6393 38.0703C32.6393 38.6172 32.524 39.084 32.2936 39.4707C32.0631 39.8574 31.7252 40.1523 31.2799 40.3555C30.8346 40.5547 30.2897 40.6543 29.6451 40.6543ZM34.9889 38.6562V44H33.9049V37.6602H34.9596L34.9889 38.6562ZM36.9694 37.625L36.9635 38.6328C36.8737 38.6133 36.7877 38.6016 36.7057 38.5977C36.6276 38.5898 36.5377 38.5859 36.4362 38.5859C36.1862 38.5859 35.9655 38.625 35.774 38.7031C35.5826 38.7812 35.4205 38.8906 35.2877 39.0312C35.1549 39.1719 35.0494 39.3398 34.9713 39.5352C34.8971 39.7266 34.8483 39.9375 34.8248 40.168L34.5201 40.3438C34.5201 39.9609 34.5573 39.6016 34.6315 39.2656C34.7096 38.9297 34.8287 38.6328 34.9889 38.375C35.149 38.1133 35.3522 37.9102 35.5983 37.7656C35.8483 37.6172 36.1451 37.543 36.4889 37.543C36.567 37.543 36.6569 37.5527 36.7584 37.5723C36.86 37.5879 36.9303 37.6055 36.9694 37.625ZM37.567 40.9004V40.7656C37.567 40.3086 37.6334 39.8848 37.7662 39.4941C37.899 39.0996 38.0905 38.7578 38.3405 38.4688C38.5905 38.1758 38.8932 37.9492 39.2487 37.7891C39.6041 37.625 40.0026 37.543 40.444 37.543C40.8893 37.543 41.2897 37.625 41.6451 37.7891C42.0045 37.9492 42.3092 38.1758 42.5592 38.4688C42.8131 38.7578 43.0065 39.0996 43.1393 39.4941C43.2721 39.8848 43.3385 40.3086 43.3385 40.7656V40.9004C43.3385 41.3574 43.2721 41.7812 43.1393 42.1719C43.0065 42.5625 42.8131 42.9043 42.5592 43.1973C42.3092 43.4863 42.0065 43.7129 41.651 43.877C41.2994 44.0371 40.901 44.1172 40.4557 44.1172C40.0104 44.1172 39.61 44.0371 39.2545 43.877C38.899 43.7129 38.5944 43.4863 38.3405 43.1973C38.0905 42.9043 37.899 42.5625 37.7662 42.1719C37.6334 41.7812 37.567 41.3574 37.567 40.9004ZM38.651 40.7656V40.9004C38.651 41.2168 38.6881 41.5156 38.7623 41.7969C38.8365 42.0742 38.9479 42.3203 39.0963 42.5352C39.2487 42.75 39.4381 42.9199 39.6647 43.0449C39.8912 43.166 40.1549 43.2266 40.4557 43.2266C40.7526 43.2266 41.0123 43.166 41.235 43.0449C41.4615 42.9199 41.649 42.75 41.7975 42.5352C41.9459 42.3203 42.0573 42.0742 42.1315 41.7969C42.2096 41.5156 42.2487 41.2168 42.2487 40.9004V40.7656C42.2487 40.4531 42.2096 40.1582 42.1315 39.8809C42.0573 39.5996 41.944 39.3516 41.7916 39.1367C41.6432 38.918 41.4557 38.7461 41.2291 38.6211C41.0065 38.4961 40.7448 38.4336 40.444 38.4336C40.1471 38.4336 39.8854 38.4961 39.6588 38.6211C39.4362 38.7461 39.2487 38.918 39.0963 39.1367C38.9479 39.3516 38.8365 39.5996 38.7623 39.8809C38.6881 40.1582 38.651 40.4531 38.651 40.7656ZM46.3151 44H45.2311V36.9922C45.2311 36.5352 45.3131 36.1504 45.4772 35.8379C45.6451 35.5215 45.8854 35.2832 46.1979 35.123C46.5104 34.959 46.8815 34.877 47.3112 34.877C47.4362 34.877 47.5612 34.8848 47.6862 34.9004C47.8151 34.916 47.9401 34.9395 48.0612 34.9707L48.0026 35.8555C47.9205 35.8359 47.8268 35.8223 47.7213 35.8145C47.6198 35.8066 47.5182 35.8027 47.4166 35.8027C47.1862 35.8027 46.9869 35.8496 46.819 35.9434C46.6549 36.0332 46.5299 36.166 46.444 36.3418C46.358 36.5176 46.3151 36.7344 46.3151 36.9922V44ZM47.6627 37.6602V38.4922H44.2291V37.6602H47.6627ZM50.0475 37.6602V44H48.9576V37.6602H50.0475ZM48.8756 35.9785C48.8756 35.8027 48.9283 35.6543 49.0338 35.5332C49.1432 35.4121 49.3033 35.3516 49.5143 35.3516C49.7213 35.3516 49.8795 35.4121 49.9889 35.5332C50.1022 35.6543 50.1588 35.8027 50.1588 35.9785C50.1588 36.1465 50.1022 36.291 49.9889 36.4121C49.8795 36.5293 49.7213 36.5879 49.5143 36.5879C49.3033 36.5879 49.1432 36.5293 49.0338 36.4121C48.9283 36.291 48.8756 36.1465 48.8756 35.9785ZM52.9655 35V44H51.8756V35H52.9655ZM57.3365 44.1172C56.8951 44.1172 56.4948 44.043 56.1354 43.8945C55.7799 43.7422 55.4733 43.5293 55.2155 43.2559C54.9615 42.9824 54.7662 42.6582 54.6295 42.2832C54.4928 41.9082 54.4244 41.498 54.4244 41.0527V40.8066C54.4244 40.291 54.5006 39.832 54.653 39.4297C54.8053 39.0234 55.0123 38.6797 55.274 38.3984C55.5358 38.1172 55.8326 37.9043 56.1647 37.7598C56.4967 37.6152 56.8405 37.543 57.1959 37.543C57.649 37.543 58.0397 37.6211 58.3678 37.7773C58.6998 37.9336 58.9713 38.1523 59.1823 38.4336C59.3932 38.7109 59.5494 39.0391 59.651 39.418C59.7526 39.793 59.8033 40.2031 59.8033 40.6484V41.1348H55.069V40.25H58.7194V40.168C58.7037 39.8867 58.6451 39.6133 58.5436 39.3477C58.4459 39.082 58.2897 38.8633 58.0748 38.6914C57.86 38.5195 57.567 38.4336 57.1959 38.4336C56.9498 38.4336 56.7233 38.4863 56.5162 38.5918C56.3092 38.6934 56.1315 38.8457 55.983 39.0488C55.8346 39.252 55.7194 39.5 55.6373 39.793C55.5553 40.0859 55.5143 40.4238 55.5143 40.8066V41.0527C55.5143 41.3535 55.5553 41.6367 55.6373 41.9023C55.7233 42.1641 55.8463 42.3945 56.0065 42.5938C56.1705 42.793 56.3678 42.9492 56.5983 43.0625C56.8326 43.1758 57.0983 43.2324 57.3951 43.2324C57.778 43.2324 58.1022 43.1543 58.3678 42.998C58.6334 42.8418 58.8658 42.6328 59.0651 42.3711L59.7213 42.8926C59.5846 43.0996 59.4108 43.2969 59.1998 43.4844C58.9889 43.6719 58.7291 43.8242 58.4205 43.9414C58.1158 44.0586 57.7545 44.1172 57.3365 44.1172Z" fill="#303030"/>
<path d="M43.4 29.5C49.199 29.5 53.9 24.799 53.9 19C53.9 13.201 49.199 8.5 43.4 8.5C37.601 8.5 32.9 13.201 32.9 19C32.9 24.799 37.601 29.5 43.4 29.5Z" fill="#303030" stroke="#303030" stroke-width="1.5" stroke-linecap="round" stroke-linejoin="round"/>
<path d="M49.4859 27.5545C47.9905 25.8844 45.8179 24.8335 43.3998 24.8335C40.9817 24.8335 38.8091 25.8844 37.3137 27.5545C40.1827 28.711 46.6525 28.0545 49.4859 27.5545Z" fill="white" stroke="white" stroke-width="1.5" stroke-linecap="round" stroke-linejoin="round"/>
<path d="M43.4 21.3335C45.333 21.3335 46.9 19.7665 46.9 17.8335C46.9 15.9005 45.333 14.3335 43.4 14.3335C41.467 14.3335 39.9 15.9005 39.9 17.8335C39.9 19.7665 41.467 21.3335 43.4 21.3335Z" fill="white" stroke="white" stroke-width="1.5" stroke-linecap="round" stroke-linejoin="round"/>
<path d="M43.4 29.5C49.199 29.5 53.9 24.799 53.9 19C53.9 13.201 49.199 8.5 43.4 8.5C37.601 8.5 32.9 13.201 32.9 19C32.9 24.799 37.601 29.5 43.4 29.5Z" stroke="#303030" stroke-width="1.5" stroke-linecap="round" stroke-linejoin="round"/>
</svg>
