<svg width="86" height="56" viewBox="0 0 86 56" fill="none" xmlns="http://www.w3.org/2000/svg">
<rect width="85.6" height="56" transform="translate(0.200012)" fill="white"/>
<path d="M23.0884 35.4688H25.9126C26.5532 35.4688 27.0942 35.5664 27.5356 35.7617C27.981 35.957 28.3188 36.2461 28.5493 36.6289C28.7837 37.0078 28.9009 37.4746 28.9009 38.0293C28.9009 38.4199 28.8208 38.7773 28.6606 39.1016C28.5044 39.4219 28.2778 39.6953 27.981 39.9219C27.688 40.1445 27.3364 40.3105 26.9263 40.4199L26.6099 40.543H23.9556L23.9438 39.623H25.9478C26.354 39.623 26.6919 39.5527 26.9614 39.4121C27.231 39.2676 27.4341 39.0742 27.5708 38.832C27.7075 38.5898 27.7759 38.3223 27.7759 38.0293C27.7759 37.7012 27.7114 37.4141 27.5825 37.168C27.4536 36.9219 27.2505 36.7324 26.9731 36.5996C26.6997 36.4629 26.3462 36.3945 25.9126 36.3945H24.2192V44H23.0884V35.4688ZM28.0747 44L26.0005 40.1328L27.1782 40.127L29.2817 43.9297V44H28.0747ZM32.9497 44.1172C32.5083 44.1172 32.1079 44.043 31.7485 43.8945C31.3931 43.7422 31.0864 43.5293 30.8286 43.2559C30.5747 42.9824 30.3794 42.6582 30.2427 42.2832C30.106 41.9082 30.0376 41.498 30.0376 41.0527V40.8066C30.0376 40.291 30.1138 39.832 30.2661 39.4297C30.4185 39.0234 30.6255 38.6797 30.8872 38.3984C31.1489 38.1172 31.4458 37.9043 31.7778 37.7598C32.1099 37.6152 32.4536 37.543 32.8091 37.543C33.2622 37.543 33.6528 37.6211 33.981 37.7773C34.313 37.9336 34.5845 38.1523 34.7954 38.4336C35.0063 38.7109 35.1626 39.0391 35.2642 39.418C35.3657 39.793 35.4165 40.2031 35.4165 40.6484V41.1348H30.6821V40.25H34.3325V40.168C34.3169 39.8867 34.2583 39.6133 34.1567 39.3477C34.0591 39.082 33.9028 38.8633 33.688 38.6914C33.4731 38.5195 33.1802 38.4336 32.8091 38.4336C32.563 38.4336 32.3364 38.4863 32.1294 38.5918C31.9224 38.6934 31.7446 38.8457 31.5962 39.0488C31.4478 39.252 31.3325 39.5 31.2505 39.793C31.1685 40.0859 31.1274 40.4238 31.1274 40.8066V41.0527C31.1274 41.3535 31.1685 41.6367 31.2505 41.9023C31.3364 42.1641 31.4595 42.3945 31.6196 42.5938C31.7837 42.793 31.981 42.9492 32.2114 43.0625C32.4458 43.1758 32.7114 43.2324 33.0083 43.2324C33.3911 43.2324 33.7153 43.1543 33.981 42.998C34.2466 42.8418 34.479 42.6328 34.6782 42.3711L35.3345 42.8926C35.1978 43.0996 35.0239 43.2969 34.813 43.4844C34.6021 43.6719 34.3423 43.8242 34.0337 43.9414C33.729 44.0586 33.3677 44.1172 32.9497 44.1172ZM40.3735 42.3184C40.3735 42.1621 40.3384 42.0176 40.2681 41.8848C40.2017 41.748 40.063 41.625 39.8521 41.5156C39.645 41.4023 39.3325 41.3047 38.9146 41.2227C38.563 41.1484 38.2446 41.0605 37.9595 40.959C37.6782 40.8574 37.438 40.7344 37.2388 40.5898C37.0435 40.4453 36.8931 40.2754 36.7876 40.0801C36.6821 39.8848 36.6294 39.6562 36.6294 39.3945C36.6294 39.1445 36.6841 38.9082 36.7935 38.6855C36.9067 38.4629 37.0649 38.2656 37.2681 38.0938C37.4751 37.9219 37.7231 37.7871 38.0122 37.6895C38.3013 37.5918 38.6235 37.543 38.979 37.543C39.4868 37.543 39.9204 37.6328 40.2798 37.8125C40.6392 37.9922 40.9146 38.2324 41.106 38.5332C41.2974 38.8301 41.3931 39.1602 41.3931 39.5234H40.3091C40.3091 39.3477 40.2563 39.1777 40.1509 39.0137C40.0493 38.8457 39.8989 38.707 39.6997 38.5977C39.5044 38.4883 39.2642 38.4336 38.979 38.4336C38.6782 38.4336 38.4341 38.4805 38.2466 38.5742C38.063 38.6641 37.9282 38.7793 37.8423 38.9199C37.7603 39.0605 37.7192 39.209 37.7192 39.3652C37.7192 39.4824 37.7388 39.5879 37.7778 39.6816C37.8208 39.7715 37.895 39.8555 38.0005 39.9336C38.106 40.0078 38.2544 40.0781 38.4458 40.1445C38.6372 40.2109 38.8813 40.2773 39.1782 40.3438C39.6978 40.4609 40.1255 40.6016 40.4614 40.7656C40.7974 40.9297 41.0474 41.1309 41.2114 41.3691C41.3755 41.6074 41.4575 41.8965 41.4575 42.2363C41.4575 42.5137 41.3989 42.7676 41.2817 42.998C41.1685 43.2285 41.0024 43.4277 40.7837 43.5957C40.5688 43.7598 40.311 43.8887 40.0103 43.9824C39.7134 44.0723 39.3794 44.1172 39.0083 44.1172C38.4497 44.1172 37.9771 44.0176 37.5903 43.8184C37.2036 43.6191 36.9106 43.3613 36.7114 43.0449C36.5122 42.7285 36.4126 42.3945 36.4126 42.043H37.5024C37.5181 42.3398 37.604 42.5762 37.7603 42.752C37.9165 42.9238 38.1079 43.0469 38.3345 43.1211C38.561 43.1914 38.7856 43.2266 39.0083 43.2266C39.3052 43.2266 39.5532 43.1875 39.7524 43.1094C39.9556 43.0312 40.1099 42.9238 40.2153 42.7871C40.3208 42.6504 40.3735 42.4941 40.3735 42.3184ZM45.5122 44.1172C45.0708 44.1172 44.6704 44.043 44.311 43.8945C43.9556 43.7422 43.6489 43.5293 43.3911 43.2559C43.1372 42.9824 42.9419 42.6582 42.8052 42.2832C42.6685 41.9082 42.6001 41.498 42.6001 41.0527V40.8066C42.6001 40.291 42.6763 39.832 42.8286 39.4297C42.981 39.0234 43.188 38.6797 43.4497 38.3984C43.7114 38.1172 44.0083 37.9043 44.3403 37.7598C44.6724 37.6152 45.0161 37.543 45.3716 37.543C45.8247 37.543 46.2153 37.6211 46.5435 37.7773C46.8755 37.9336 47.147 38.1523 47.3579 38.4336C47.5688 38.7109 47.7251 39.0391 47.8267 39.418C47.9282 39.793 47.979 40.2031 47.979 40.6484V41.1348H43.2446V40.25H46.895V40.168C46.8794 39.8867 46.8208 39.6133 46.7192 39.3477C46.6216 39.082 46.4653 38.8633 46.2505 38.6914C46.0356 38.5195 45.7427 38.4336 45.3716 38.4336C45.1255 38.4336 44.8989 38.4863 44.6919 38.5918C44.4849 38.6934 44.3071 38.8457 44.1587 39.0488C44.0103 39.252 43.895 39.5 43.813 39.793C43.731 40.0859 43.6899 40.4238 43.6899 40.8066V41.0527C43.6899 41.3535 43.731 41.6367 43.813 41.9023C43.8989 42.1641 44.022 42.3945 44.1821 42.5938C44.3462 42.793 44.5435 42.9492 44.7739 43.0625C45.0083 43.1758 45.2739 43.2324 45.5708 43.2324C45.9536 43.2324 46.2778 43.1543 46.5435 42.998C46.8091 42.8418 47.0415 42.6328 47.2407 42.3711L47.897 42.8926C47.7603 43.0996 47.5864 43.2969 47.3755 43.4844C47.1646 43.6719 46.9048 43.8242 46.5962 43.9414C46.2915 44.0586 45.9302 44.1172 45.5122 44.1172ZM50.3286 38.6562V44H49.2446V37.6602H50.2993L50.3286 38.6562ZM52.3091 37.625L52.3032 38.6328C52.2134 38.6133 52.1274 38.6016 52.0454 38.5977C51.9673 38.5898 51.8774 38.5859 51.7759 38.5859C51.5259 38.5859 51.3052 38.625 51.1138 38.7031C50.9224 38.7812 50.7603 38.8906 50.6274 39.0312C50.4946 39.1719 50.3892 39.3398 50.311 39.5352C50.2368 39.7266 50.188 39.9375 50.1646 40.168L49.8599 40.3438C49.8599 39.9609 49.897 39.6016 49.9712 39.2656C50.0493 38.9297 50.1685 38.6328 50.3286 38.375C50.4888 38.1133 50.6919 37.9102 50.938 37.7656C51.188 37.6172 51.4849 37.543 51.8286 37.543C51.9067 37.543 51.9966 37.5527 52.0981 37.5723C52.1997 37.5879 52.27 37.6055 52.3091 37.625ZM55.3442 43.0215L57.0786 37.6602H58.186L55.9067 44H55.1802L55.3442 43.0215ZM53.897 37.6602L55.6841 43.0508L55.8071 44H55.0806L52.7837 37.6602H53.897ZM61.7778 44.1172C61.3364 44.1172 60.936 44.043 60.5767 43.8945C60.2212 43.7422 59.9146 43.5293 59.6567 43.2559C59.4028 42.9824 59.2075 42.6582 59.0708 42.2832C58.9341 41.9082 58.8657 41.498 58.8657 41.0527V40.8066C58.8657 40.291 58.9419 39.832 59.0942 39.4297C59.2466 39.0234 59.4536 38.6797 59.7153 38.3984C59.9771 38.1172 60.2739 37.9043 60.606 37.7598C60.938 37.6152 61.2817 37.543 61.6372 37.543C62.0903 37.543 62.481 37.6211 62.8091 37.7773C63.1411 37.9336 63.4126 38.1523 63.6235 38.4336C63.8345 38.7109 63.9907 39.0391 64.0923 39.418C64.1938 39.793 64.2446 40.2031 64.2446 40.6484V41.1348H59.5103V40.25H63.1606V40.168C63.145 39.8867 63.0864 39.6133 62.9849 39.3477C62.8872 39.082 62.731 38.8633 62.5161 38.6914C62.3013 38.5195 62.0083 38.4336 61.6372 38.4336C61.3911 38.4336 61.1646 38.4863 60.9575 38.5918C60.7505 38.6934 60.5728 38.8457 60.4243 39.0488C60.2759 39.252 60.1606 39.5 60.0786 39.793C59.9966 40.0859 59.9556 40.4238 59.9556 40.8066V41.0527C59.9556 41.3535 59.9966 41.6367 60.0786 41.9023C60.1646 42.1641 60.2876 42.3945 60.4478 42.5938C60.6118 42.793 60.8091 42.9492 61.0396 43.0625C61.2739 43.1758 61.5396 43.2324 61.8364 43.2324C62.2192 43.2324 62.5435 43.1543 62.8091 42.998C63.0747 42.8418 63.3071 42.6328 63.5063 42.3711L64.1626 42.8926C64.0259 43.0996 63.8521 43.2969 63.6411 43.4844C63.4302 43.6719 63.1704 43.8242 62.8618 43.9414C62.5571 44.0586 62.1958 44.1172 61.7778 44.1172Z" fill="#303030"/>
<rect x="34" y="15" width="19" height="15" fill="#303030"/>
<path d="M51.7529 10.4453H34.6422C33.9672 10.4453 33.42 10.9925 33.42 11.6675V28.7782C33.42 29.4532 33.9672 30.0004 34.6422 30.0004H51.7529C52.4279 30.0004 52.9751 29.4532 52.9751 28.7782V11.6675C52.9751 10.9925 52.4279 10.4453 51.7529 10.4453Z" stroke="#303030" stroke-width="1.5" stroke-linecap="round" stroke-linejoin="round"/>
<path d="M47.5876 24.6094H48.5876V25.6094H47.5876V24.6094Z" stroke="white" stroke-width="1.5" stroke-linecap="round" stroke-linejoin="round"/>
<path d="M42.6989 24.6094H43.6989V25.6094H42.6989V24.6094Z" stroke="white" stroke-width="1.5" stroke-linecap="round" stroke-linejoin="round"/>
<path d="M37.81 24.6094H38.81V25.6094H37.81V24.6094Z" stroke="white" stroke-width="1.5" stroke-linecap="round" stroke-linejoin="round"/>
<path d="M47.5876 19.7188H48.5876V20.7187H47.5876V19.7188Z" stroke="white" stroke-width="1.5" stroke-linecap="round" stroke-linejoin="round"/>
<path d="M42.6989 19.7188H43.6989V20.7187H42.6989V19.7188Z" stroke="white" stroke-width="1.5" stroke-linecap="round" stroke-linejoin="round"/>
<path d="M37.81 19.7188H38.81V20.7187H37.81V19.7188Z" stroke="white" stroke-width="1.5" stroke-linecap="round" stroke-linejoin="round"/>
<path d="M33.42 15.3359H52.9751" stroke="#303030" stroke-width="1.5" stroke-linecap="round" stroke-linejoin="round"/>
<path d="M48.0862 8V10.4444" stroke="#303030" stroke-width="1.5" stroke-linecap="round" stroke-linejoin="round"/>
<path d="M38.3086 8V10.4444" stroke="#303030" stroke-width="1.5" stroke-linecap="round" stroke-linejoin="round"/>
</svg>
