<svg width="41" height="42" viewBox="0 0 41 42" fill="none" xmlns="http://www.w3.org/2000/svg">
<circle cx="20.4562" cy="21.4543" r="20.4562" fill="#303030"/>
<path d="M20.6069 31.5017C15.715 31.4372 11.7651 27.4873 11.7006 22.5955C11.7651 17.7037 15.715 13.7537 20.6069 13.6892C25.4987 13.7537 29.4486 17.7037 29.5131 22.5955C29.4486 27.4873 25.4987 31.4372 20.6069 31.5017ZM20.6069 15.6684C16.8021 15.7185 13.7299 18.7907 13.6798 22.5955C13.7299 26.4002 16.8021 29.4725 20.6069 29.5226C24.4116 29.4725 27.4839 26.4002 27.534 22.5955C27.4839 18.7907 24.4116 15.7185 20.6069 15.6684ZM21.5965 27.5434H19.6173V23.5851H15.659V21.6059H19.6173V17.6476H21.5965V21.6059H25.5548V23.5851H21.5965V27.5434ZM28.8125 16.369L25.8349 13.4003L27.2292 11.998L30.2078 14.9668L28.8125 16.369ZM12.4022 16.369L11 14.9668L13.9598 11.998L15.3601 13.3993L12.4022 16.369Z" fill="white"/>
</svg>
